<svg xmlns="http://www.w3.org/2000/svg" viewBox="0 0 314.24 322.89"><defs><style>.cls-1,.cls-4{fill:#003b71;}.cls-2{fill:none;}.cls-3{fill:#ac8700;}.cls-4{stroke:#003b71;stroke-miterlimit:10;stroke-width:0.28px;}</style></defs><g id="Layer_2" data-name="Layer 2"><g id="Layer_1-2" data-name="Layer 1"><path id="path_774_306_5_o" data-name="path 774 306 5 o" class="cls-1" d="M266.28,249.55v-7.3h7.3v7.3Z"/><path id="path_792_306_5_k" data-name="path 792 306 5 k" class="cls-1" d="M273.58,249.55v-7.3h7.3v7.3Z"/><path id="path_810_306_14_x" data-name="path 810 306 14 x" class="cls-1" d="M280.88,249.55v-7.3h7.29v7.3Z"/><path id="path_828_306_64_o" data-name="path 828 306 64 o" class="cls-1" d="M288.17,249.55v-7.3h7.3v7.3Z"/><path id="path_846_306_40_k" data-name="path 846 306 40 k" class="cls-1" d="M295.47,249.55v-7.3h7.3v7.3Z"/><path id="path_864_306_84_r" data-name="path 864 306 84 r" class="cls-1" d="M302.77,249.55v-7.3h7.3v7.3Z"/><path id="path_864_324_22_b" data-name="path 864 324 22 b" class="cls-1" d="M302.77,256.84v-7.29h7.3v7.29Z"/><path id="path_864_342_50_z" data-name="path 864 342 50 z" class="cls-1" d="M302.77,264.14v-7.3h7.3v7.3Z"/><path id="path_846_342_75_h" data-name="path 846 342 75 h" class="cls-1" d="M295.47,264.14v-7.3h7.3v7.3Z"/><path id="path_828_342_86_q" data-name="path 828 342 86 q" class="cls-1" d="M288.17,264.14v-7.3h7.3v7.3Z"/><path id="path_810_342_90_j" data-name="path 810 342 90 j" class="cls-1" d="M280.88,264.14v-7.3h7.29v7.3Z"/><path id="path_792_342_45_a" data-name="path 792 342 45 a" class="cls-1" d="M273.58,264.14v-7.3h7.3v7.3Z"/><path id="path_774_342_48_u" data-name="path 774 342 48 u" class="cls-1" d="M266.28,264.14v-7.3h7.3v7.3Z"/><path id="path_756_342_31_n" data-name="path 756 342 31 n" class="cls-1" d="M259,264.14v-7.3h7.29v7.3Z"/><path id="path_738_342_60_f" data-name="path 738 342 60 f" class="cls-1" d="M251.69,264.14v-7.3H259v7.3Z"/><path id="path_738_324_25_c" data-name="path 738 324 25 c" class="cls-1" d="M251.69,256.84v-7.29H259v7.29Z"/><path id="path_738_306_41_u" data-name="path 738 306 41 u" class="cls-1" d="M251.69,249.55v-7.3H259v7.3Z"/><path id="path_738_288_88_q" data-name="path 738 288 88 q" class="cls-1" d="M251.69,242.25V235H259v7.3Z"/><path id="path_738_270_26_g" data-name="path 738 270 26 g" class="cls-1" d="M251.69,235v-7.29H259V235Z"/><path id="path_738_252_80_n" data-name="path 738 252 80 n" class="cls-1" d="M251.69,227.66v-7.3H259v7.3Z"/><path id="path_738_234_72_q" data-name="path 738 234 72 q" class="cls-1" d="M251.69,220.36v-7.3H259v7.3Z"/><path id="path_738_216_59_a" data-name="path 738 216 59 a" class="cls-1" d="M251.69,213.06v-7.3H259v7.3Z"/><path id="path_738_198_92_r" data-name="path 738 198 92 r" class="cls-1" d="M251.69,205.76v-7.29H259v7.29Z"/><path id="path_702_306_82_i" data-name="path 702 306 82 i" class="cls-1" d="M237.09,249.55v-7.3h7.3v7.3Z"/><path id="path_684_306_89_q" data-name="path 684 306 89 q" class="cls-1" d="M229.8,249.55v-7.3h7.29v7.3Z"/><path id="path_666_306_42_j" data-name="path 666 306 42 j" class="cls-1" d="M222.5,249.55v-7.3h7.3v7.3Z"/><path id="path_702_324_84_h" data-name="path 702 324 84 h" class="cls-1" d="M237.09,256.84v-7.29h7.3v7.29Z"/><path id="path_702_342_53_m" data-name="path 702 342 53 m" class="cls-1" d="M237.09,264.14v-7.3h7.3v7.3Z"/><path id="path_702_360_11_q" data-name="path 702 360 11 q" class="cls-1" d="M237.09,271.44v-7.3h7.3v7.3Z"/><path id="path_666_324_27_g" data-name="path 666 324 27 g" class="cls-1" d="M222.5,256.84v-7.29h7.3v7.29Z"/><path id="path_666_342_14_f" data-name="path 666 342 14 f" class="cls-1" d="M222.5,264.14v-7.3h7.3v7.3Z"/><path id="path_666_360_10_m" data-name="path 666 360 10 m" class="cls-1" d="M222.5,271.44v-7.3h7.3v7.3Z"/><path id="path_666_378_81_l" data-name="path 666 378 81 l" class="cls-1" d="M222.5,278.74v-7.3h7.3v7.3Z"/><path id="path_684_378_14_o" data-name="path 684 378 14 o" class="cls-1" d="M229.8,282.39v-7.3h7.29v7.3Z"/><path id="path_702_378_93_e" data-name="path 702 378 93 e" class="cls-1" d="M237.09,278.74v-7.3h7.3v7.3Z"/><path id="path_666_378_81_l-2" data-name="path 666 378 81 l" class="cls-1" d="M222.5,282.39v-3.65h7.3v3.65Z"/><path id="path_702_378_93_e-2" data-name="path 702 378 93 e" class="cls-1" d="M237.09,282.39v-3.65h7.3v3.65Z"/><path id="path_648_342_36_b" data-name="path 648 342 36 b" class="cls-1" d="M215.2,264.14v-7.3h7.3v7.3Z"/><path id="path_630_342_25_q" data-name="path 630 342 25 q" class="cls-1" d="M207.9,264.14v-7.3h7.3v7.3Z"/><path id="path_630_306_7_r" data-name="path 630 306 7 r" class="cls-1" d="M207.9,249.55v-7.3h7.3v7.3Z"/><path id="path_630_324_49_l" data-name="path 630 324 49 l" class="cls-2" d="M207.9,256.84v-7.29h7.3v7.29Z"/><path id="path_612_306_27_t" data-name="path 612 306 27 t" class="cls-1" d="M200.61,249.55v-7.3h7.29v7.3Z"/><path id="path_594_306_7_j" data-name="path 594 306 7 j" class="cls-1" d="M193.31,249.55v-7.3h7.3v7.3Z"/><path id="path_594_324_64_e" data-name="path 594 324 64 e" class="cls-1" d="M193.31,256.84v-7.29h7.3v7.29Z"/><path id="path_594_342_36_t" data-name="path 594 342 36 t" class="cls-1" d="M193.31,264.14v-7.3h7.3v7.3Z"/><path id="path_612_342_86_h" data-name="path 612 342 86 h" class="cls-1" d="M200.61,264.14v-7.3h7.29v7.3Z"/><path id="path_576_342_59_x" data-name="path 576 342 59 x" class="cls-1" d="M186,264.14v-7.3h7.3v7.3Z"/><path id="path_558_342_52_a" data-name="path 558 342 52 a" class="cls-1" d="M178.72,264.14v-7.3H186v7.3Z"/><path id="path_558_306_1_c" data-name="path 558 306 1 c" class="cls-1" d="M178.72,249.55v-7.3H186v7.3Z"/><path id="path_558_324_22_n" data-name="path 558 324 22 n" class="cls-1" d="M178.72,256.84v-7.29H186v7.29Z"/><path id="path_540_306_37_j" data-name="path 540 306 37 j" class="cls-1" d="M171.42,249.55v-7.3h7.3v7.3Z"/><path id="path_522_306_56_d" data-name="path 522 306 56 d" class="cls-1" d="M164.12,249.55v-7.3h7.3v7.3Z"/><path id="path_522_324_15_s" data-name="path 522 324 15 s" class="cls-1" d="M164.12,256.84v-7.29h7.3v7.29Z"/><path id="path_522_342_45_m" data-name="path 522 342 45 m" class="cls-1" d="M164.12,264.14v-7.3h7.3v7.3Z"/><path id="path_540_342_93_q" data-name="path 540 342 93 q" class="cls-1" d="M171.42,264.14v-7.3h7.3v7.3Z"/><path id="path_486_306_6_k" data-name="path 486 306 6 k" class="cls-1" d="M149.53,249.55v-7.3h7.29v7.3Z"/><path id="path_486_324_30_n" data-name="path 486 324 30 n" class="cls-1" d="M149.53,256.84v-7.29h7.29v7.29Z"/><path id="path_486_342_92_n" data-name="path 486 342 92 n" class="cls-1" d="M149.53,264.14v-7.3h7.29v7.3Z"/><path id="path_468_306_75_h" data-name="path 468 306 75 h" class="cls-1" d="M142.23,249.55v-7.3h7.3v7.3Z"/><path id="path_450_306_42_c" data-name="path 450 306 42 c" class="cls-1" d="M134.93,249.55v-7.3h7.3v7.3Z"/><path id="path_432_306_98_l" data-name="path 432 306 98 l" class="cls-1" d="M127.63,249.55v-7.3h7.3v7.3Z"/><path id="path_414_306_63_a" data-name="path 414 306 63 a" class="cls-1" d="M120.34,249.55v-7.3h7.29v7.3Z"/><path id="path_396_306_76_o" data-name="path 396 306 76 o" class="cls-1" d="M113,249.55v-7.3h7.3v7.3Z"/><path id="path_468_342_44_x" data-name="path 468 342 44 x" class="cls-1" d="M142.23,264.14v-7.3h7.3v7.3Z"/><path id="path_450_342_98_o" data-name="path 450 342 98 o" class="cls-1" d="M134.93,264.14v-7.3h7.3v7.3Z"/><path id="path_432_342_19_b" data-name="path 432 342 19 b" class="cls-1" d="M127.63,264.14v-7.3h7.3v7.3Z"/><path id="path_414_342_32_w" data-name="path 414 342 32 w" class="cls-1" d="M120.34,264.14v-7.3h7.29v7.3Z"/><path id="path_396_342_74_c" data-name="path 396 342 74 c" class="cls-1" d="M113,264.14v-7.3h7.3v7.3Z"/><path id="path_378_342_24_w" data-name="path 378 342 24 w" class="cls-1" d="M105.74,264.14v-7.3H113v7.3Z"/><path id="path_360_342_69_g" data-name="path 360 342 69 g" class="cls-1" d="M98.44,264.14v-7.3h7.3v7.3Z"/><path id="path_360_324_88_g" data-name="path 360 324 88 g" class="cls-1" d="M98.44,256.84v-7.29h7.3v7.29Z"/><path id="path_360_306_71_t" data-name="path 360 306 71 t" class="cls-1" d="M98.44,249.55v-7.3h7.3v7.3Z"/><path id="path_360_288_2_m" data-name="path 360 288 2 m" class="cls-1" d="M98.44,242.25V235h7.3v7.3Z"/><path id="path_360_270_54_y" data-name="path 360 270 54 y" class="cls-1" d="M98.44,235v-7.29h7.3V235Z"/><path id="path_360_252_64_x" data-name="path 360 252 64 x" class="cls-1" d="M98.44,227.66v-7.3h7.3v7.3Z"/><path id="path_360_234_72_k" data-name="path 360 234 72 k" class="cls-1" d="M98.44,220.36v-7.3h7.3v7.3Z"/><path id="path_360_216_38_a" data-name="path 360 216 38 a" class="cls-1" d="M98.44,213.06v-7.3h7.3v7.3Z"/><path id="path_360_198_33_h" data-name="path 360 198 33 h" class="cls-1" d="M98.44,205.76v-7.29h7.3v7.29Z"/><path id="path_342_342_39_a" data-name="path 342 342 39 a" class="cls-1" d="M91.15,264.14v-7.3h7.29v7.3Z"/><path id="path_324_342_19_h" data-name="path 324 342 19 h" class="cls-1" d="M83.85,264.14v-7.3h7.3v7.3Z"/><path id="path_324_324_17_e" data-name="path 324 324 17 e" class="cls-1" d="M83.85,256.84v-7.29h7.3v7.29Z"/><path id="path_324_306_98_b" data-name="path 324 306 98 b" class="cls-1" d="M83.85,249.55v-7.3h7.3v7.3Z"/><path id="path_306_306_78_i" data-name="path 306 306 78 i" class="cls-1" d="M76.55,249.55v-7.3h7.3v7.3Z"/><path id="path_288_306_6_c" data-name="path 288 306 6 c" class="cls-1" d="M69.26,249.55v-7.3h7.29v7.3Z"/><path id="path_288_324_59_u" data-name="path 288 324 59 u" class="cls-1" d="M69.26,256.84v-7.29h7.29v7.29Z"/><path id="path_288_342_69_w" data-name="path 288 342 69 w" class="cls-1" d="M69.26,264.14v-7.3h7.29v7.3Z"/><path id="path_306_342_67_v" data-name="path 306 342 67 v" class="cls-1" d="M76.55,264.14v-7.3h7.3v7.3Z"/><path id="path_324_360_57_u" data-name="path 324 360 57 u" class="cls-1" d="M83.85,275.09v-7.3h7.3v7.3Z"/><path id="path_324_378_97_p" data-name="path 324 378 97 p" class="cls-1" d="M83.85,282.39v-7.3h7.3v7.3Z"/><path id="path_306_378_39_t" data-name="path 306 378 39 t" class="cls-1" d="M76.55,282.39v-7.3h7.3v7.3Z"/><path id="path_288_378_88_l" data-name="path 288 378 88 l" class="cls-1" d="M69.26,282.39v-7.3h7.29v7.3Z"/><path id="path_252_342_36_i" data-name="path 252 342 36 i" class="cls-1" d="M54.66,264.14v-7.3H62v7.3Z"/><path id="path_252_324_68_l" data-name="path 252 324 68 l" class="cls-1" d="M54.66,256.84v-7.29H62v7.29Z"/><path id="path_252_306_51_j" data-name="path 252 306 51 j" class="cls-1" d="M54.66,249.55v-7.3H62v7.3Z"/><path id="path_252_288_97_c" data-name="path 252 288 97 c" class="cls-1" d="M54.66,242.25V235H62v7.3Z"/><path id="path_252_270_48_a" data-name="path 252 270 48 a" class="cls-1" d="M54.66,235v-7.29H62V235Z"/><path id="path_252_252_95_e" data-name="path 252 252 95 e" class="cls-1" d="M54.66,227.66v-7.3H62v7.3Z"/><path id="path_252_234_10_z" data-name="path 252 234 10 z" class="cls-1" d="M54.66,220.36v-7.3H62v7.3Z"/><path id="path_252_216_86_c" data-name="path 252 216 86 c" class="cls-1" d="M54.66,213.06v-7.3H62v7.3Z"/><path id="path_252_198_40_p" data-name="path 252 198 40 p" class="cls-1" d="M54.66,205.76v-7.29H62v7.29Z"/><path id="path_738_198_92_r-2" data-name="path 738 198 92 r" class="cls-1" d="M251.69,198.47V93.39H259V198.47Z"/><path id="path_252_198_40_p-2" data-name="path 252 198 40 p" class="cls-1" d="M54.66,198.47V93.39H62V198.47Z"/><path id="path_216_306_20_z" data-name="path 216 306 20 z" class="cls-1" d="M40.07,249.55v-7.3h7.29v7.3Z"/><path id="path_216_324_0_d" data-name="path 216 324 0 d" class="cls-1" d="M40.07,256.84v-7.29h7.29v7.29Z"/><path id="path_216_342_15_t" data-name="path 216 342 15 t" class="cls-1" d="M40.07,264.14v-7.3h7.29v7.3Z"/><path id="path_198_342_55_o" data-name="path 198 342 55 o" class="cls-1" d="M32.77,264.14v-7.3h7.3v7.3Z"/><path id="path_180_342_57_k" data-name="path 180 342 57 k" class="cls-1" d="M25.47,264.14v-7.3h7.3v7.3Z"/><path id="path_162_342_93_o" data-name="path 162 342 93 o" class="cls-1" d="M18.17,264.14v-7.3h7.3v7.3Z"/><path id="path_144_342_39_y" data-name="path 144 342 39 y" class="cls-1" d="M10.88,264.14v-7.3h7.29v7.3Z"/><path id="path_126_342_74_b" data-name="path 126 342 74 b" class="cls-1" d="M3.58,264.14v-7.3h7.3v7.3Z"/><path id="path_864_342_50_z-2" data-name="path 864 342 50 z" class="cls-1" d="M302.77,267.79v-3.65h7.3v3.65Z"/><path id="path_846_342_75_h-2" data-name="path 846 342 75 h" class="cls-1" d="M295.47,267.79v-3.65h7.3v3.65Z"/><path id="path_828_342_86_q-2" data-name="path 828 342 86 q" class="cls-1" d="M288.17,267.79v-3.65h7.3v3.65Z"/><path id="path_810_342_90_j-2" data-name="path 810 342 90 j" class="cls-1" d="M280.88,267.79v-3.65h7.29v3.65Z"/><path id="path_792_342_45_a-2" data-name="path 792 342 45 a" class="cls-1" d="M273.58,267.79v-3.65h7.3v3.65Z"/><path id="path_774_342_48_u-2" data-name="path 774 342 48 u" class="cls-1" d="M266.28,267.79v-3.65h7.3v3.65Z"/><path id="path_756_342_31_n-2" data-name="path 756 342 31 n" class="cls-1" d="M259,267.79v-3.65h7.29v3.65Z"/><path id="path_738_342_60_f-2" data-name="path 738 342 60 f" class="cls-1" d="M251.69,267.79v-3.65H259v3.65Z"/><path id="path_666_342_14_f-2" data-name="path 666 342 14 f" class="cls-1" d="M222.5,267.79v-3.65h7.3v3.65Z"/><path id="path_648_342_36_b-2" data-name="path 648 342 36 b" class="cls-1" d="M215.2,267.79v-3.65h7.3v3.65Z"/><path id="path_630_342_25_q-2" data-name="path 630 342 25 q" class="cls-1" d="M207.9,267.79v-3.65h7.3v3.65Z"/><path id="path_594_342_36_t-2" data-name="path 594 342 36 t" class="cls-1" d="M193.31,267.79v-3.65h7.3v3.65Z"/><path id="path_612_342_86_h-2" data-name="path 612 342 86 h" class="cls-1" d="M200.61,267.79v-3.65h7.29v3.65Z"/><path id="path_576_342_59_x-2" data-name="path 576 342 59 x" class="cls-1" d="M186,267.79v-3.65h7.3v3.65Z"/><path id="path_558_342_52_a-2" data-name="path 558 342 52 a" class="cls-1" d="M178.72,267.79v-3.65H186v3.65Z"/><path id="path_522_342_45_m-2" data-name="path 522 342 45 m" class="cls-1" d="M164.12,267.79v-3.65h7.3v3.65Z"/><path id="path_540_342_93_q-2" data-name="path 540 342 93 q" class="cls-1" d="M171.42,267.79v-3.65h7.3v3.65Z"/><path id="path_486_342_92_n-2" data-name="path 486 342 92 n" class="cls-1" d="M149.53,267.79v-3.65h7.29v3.65Z"/><path id="path_468_342_44_x-2" data-name="path 468 342 44 x" class="cls-1" d="M142.23,267.79v-3.65h7.3v3.65Z"/><path id="path_450_342_98_o-2" data-name="path 450 342 98 o" class="cls-1" d="M134.93,267.79v-3.65h7.3v3.65Z"/><path id="path_432_342_19_b-2" data-name="path 432 342 19 b" class="cls-1" d="M127.63,267.79v-3.65h7.3v3.65Z"/><path id="path_414_342_32_w-2" data-name="path 414 342 32 w" class="cls-1" d="M120.34,267.79v-3.65h7.29v3.65Z"/><path id="path_396_342_74_c-2" data-name="path 396 342 74 c" class="cls-1" d="M113,267.79v-3.65h7.3v3.65Z"/><path id="path_378_342_24_w-2" data-name="path 378 342 24 w" class="cls-1" d="M105.74,267.79v-3.65H113v3.65Z"/><path id="path_360_342_69_g-2" data-name="path 360 342 69 g" class="cls-1" d="M98.44,267.79v-3.65h7.3v3.65Z"/><path id="path_342_342_39_a-2" data-name="path 342 342 39 a" class="cls-1" d="M91.15,267.79v-3.65h7.29v3.65Z"/><path id="path_324_342_19_h-2" data-name="path 324 342 19 h" class="cls-1" d="M83.85,267.79v-3.65h7.3v3.65Z"/><path id="path_288_342_69_w-2" data-name="path 288 342 69 w" class="cls-1" d="M69.26,267.79v-3.65h7.29v3.65Z"/><path id="path_306_342_67_v-2" data-name="path 306 342 67 v" class="cls-1" d="M76.55,267.79v-3.65h7.3v3.65Z"/><path id="path_216_342_15_t-2" data-name="path 216 342 15 t" class="cls-1" d="M40.07,267.79v-3.65h7.29v3.65Z"/><path id="path_216_342_15_t-3" data-name="path 216 342 15 t" class="cls-1" d="M54.66,267.79v-3.65H62v3.65Z"/><path id="path_198_342_55_o-2" data-name="path 198 342 55 o" class="cls-1" d="M32.77,267.79v-3.65h7.3v3.65Z"/><path id="path_180_342_57_k-2" data-name="path 180 342 57 k" class="cls-1" d="M25.47,267.79v-3.65h7.3v3.65Z"/><path id="path_162_342_93_o-2" data-name="path 162 342 93 o" class="cls-1" d="M18.17,267.79v-3.65h7.3v3.65Z"/><path id="path_144_342_39_y-2" data-name="path 144 342 39 y" class="cls-1" d="M10.88,267.79v-3.65h7.29v3.65Z"/><path id="path_126_342_74_b-2" data-name="path 126 342 74 b" class="cls-1" d="M3.58,267.79v-3.65h7.3v3.65Z"/><path id="path_126_324_32_o" data-name="path 126 324 32 o" class="cls-1" d="M3.58,256.84v-7.29h7.3v7.29Z"/><path id="path_126_306_44_r" data-name="path 126 306 44 r" class="cls-1" d="M3.58,249.55v-7.3h7.3v7.3Z"/><path class="cls-1" d="M116.09.13A102.29,102.29,0,0,0,54.67,93.46H62A95,95,0,0,1,119,6.81Z"/><path class="cls-1" d="M197.27,0l-2.91,6.67A95,95,0,0,1,251.7,93.46H259A102.31,102.31,0,0,0,197.27,0Z"/><circle class="cls-1" cx="181.34" cy="232.11" r="4.67"/><circle class="cls-1" cx="168.79" cy="232.11" r="4.67"/><circle class="cls-1" cx="288.17" cy="277.71" r="4.67"/><circle class="cls-1" cx="25.47" cy="232.11" r="4.67"/><path class="cls-3" d="M131.92,100.74A25.22,25.22,0,1,1,157.14,126a25.21,25.21,0,0,1-25.22-25.21"/><path class="cls-3" d="M157.23,176.16c-19.67,0-35.67-34.06-35.67-75.91s16-75.92,35.67-75.92,35.67,34.06,35.67,75.92S176.9,176.16,157.23,176.16Zm0-149.79c-18.54,0-33.63,33.14-33.63,73.88s15.09,73.87,33.63,73.87,33.63-33.14,33.63-73.87S175.78,26.37,157.23,26.37Z"/><path class="cls-3" d="M161.13,170a6.1,6.1,0,1,1,6.09,6.09,6.09,6.09,0,0,1-6.09-6.09"/><path class="cls-3" d="M138.27,32.2a6.1,6.1,0,1,1,6.1,6.09,6.1,6.1,0,0,1-6.1-6.09"/><path class="cls-3" d="M193.38,161.83c-17.14,0-41.75-12.7-63.33-34.26-14.29-14.27-25.17-30.26-30.65-45-5.58-15-4.9-27,1.9-33.82,13.82-13.82,49.22-.94,78.9,28.71,14.29,14.27,25.17,30.25,30.65,45,5.57,15,4.9,27-1.91,33.83C205.18,160,199.8,161.83,193.38,161.83ZM117,45.1c-5.92,0-10.84,1.63-14.3,5.08-6.2,6.2-6.71,17.45-1.43,31.67,5.38,14.48,16.1,30.2,30.18,44.27,28.88,28.86,63,41.74,76,28.71,6.21-6.2,6.72-17.45,1.43-31.67-5.37-14.48-16.09-30.2-30.17-44.27C157.53,57.68,133.47,45.1,117,45.1Z"/><path class="cls-3" d="M207.22,149.06a6.1,6.1,0,1,1,8.63,0,6.1,6.1,0,0,1-8.63,0"/><path class="cls-3" d="M154.94,138c-20.16,0-39.12-3.63-53.41-10.22C87,121.06,79,112,79,102.37c0-19.66,34.08-35.65,76-35.66h0c20.15,0,39.12,3.63,53.4,10.23,14.54,6.72,22.55,15.74,22.55,25.41s-8,18.69-22.55,25.41C194.1,134.37,175.13,138,155,138h0Zm0-69.25h0C114.19,68.76,81,83.84,81,102.37c0,8.82,7.59,17.19,21.36,23.55,14,6.48,32.68,10,52.55,10h0c19.87,0,38.54-3.57,52.57-10.05,13.77-6.37,21.36-14.73,21.36-23.56s-7.59-17.19-21.37-23.56C193.5,72.32,174.84,68.75,155,68.75Z"/><path class="cls-3" d="M224.74,98.46a6.1,6.1,0,1,1,6.1-6.09,6.1,6.1,0,0,1-6.1,6.09"/><path class="cls-3" d="M86.86,121.31a6.1,6.1,0,1,1,6.1-6.09,6.1,6.1,0,0,1-6.1,6.09"/><path class="cls-3" d="M116.8,162.7c-6.42,0-11.79-1.78-15.55-5.54-6.81-6.8-7.49-18.82-1.91-33.84,5.47-14.75,16.36-30.74,30.64-45,29.68-29.66,65.07-42.56,78.91-28.73,6.8,6.8,7.48,18.81,1.91,33.83-5.48,14.75-16.37,30.74-30.65,45C158.56,150,133.94,162.7,116.8,162.7ZM193.15,45.94c-16.43,0-40.49,12.59-61.73,33.81-14.08,14.07-24.79,29.8-30.17,44.29-5.28,14.22-4.77,25.47,1.44,31.67,13,13,47.14.13,76-28.73h0c14.08-14.07,24.8-29.8,30.17-44.28,5.28-14.23,4.77-25.48-1.44-31.68C204,47.57,199.06,45.94,193.15,45.94Z"/><path class="cls-3" d="M120.32,164.89a6.1,6.1,0,1,1,0-8.62,6.11,6.11,0,0,1,0,8.62"/><path class="cls-3" d="M93.56,64.91a6.1,6.1,0,1,1,8.63,0,6.08,6.08,0,0,1-8.63,0"/><path class="cls-3" d="M201.66,50.34a6.1,6.1,0,1,1,0-8.62,6.1,6.1,0,0,1,0,8.62"/><path class="cls-4" d="M2.79,298v10.19h10V298h2.68v24.37H12.75V310.93h-10v11.43H.14V298Z"/><path class="cls-4" d="M33.75,310.93h-8v8.79h8.92v2.64H23.1V298H34.21v2.64H25.75v7.7h8Z"/><path class="cls-4" d="M41.17,298h2.66v21.73h8.79v2.64H41.17Z"/><path class="cls-4" d="M60.19,322.36,55,298h2.81l2.44,12.33c.61,3,1.16,6.07,1.53,8.42h.06c.33-2.42,1-5.31,1.68-8.46L66.24,298H69l2.51,12.36c.58,2.89,1.13,5.79,1.43,8.35H73c.43-2.67,1-5.38,1.65-8.42L77.38,298H80.1l-5.84,24.37H71.49l-2.6-12.7c-.64-3.1-1.07-5.49-1.34-8h-.06c-.37,2.42-.83,4.81-1.59,8L63,322.36Z"/><path class="cls-4" d="M87.3,314.69l-2.14,7.67H82.42l7-24.37h3.2l7,24.37H96.8l-2.2-7.67Zm6.75-2.46-2-7c-.45-1.59-.76-3-1.06-4.45H90.9c-.3,1.45-.64,2.93-1,4.41l-2,7.05Z"/><path class="cls-4" d="M105.71,322.36V298h2.9l6.6,12.33a75.21,75.21,0,0,1,3.69,7.91l.06,0c-.24-3.26-.3-6.22-.3-10V298h2.5v24.37h-2.69L111.94,310a81.52,81.52,0,0,1-3.85-8.14l-.09,0c.15,3.07.21,6,.21,10.05v10.42Z"/><path class="cls-4" d="M141,298v14.42c0,5.46,2.05,7.78,4.8,7.78,3,0,5-2.39,5-7.78V298h2.69V312.2c0,7.48-3.33,10.55-7.78,10.55-4.22,0-7.39-2.85-7.39-10.41V298Z"/><path class="cls-4" d="M161.18,322.36V298h2.9l6.6,12.33a71.37,71.37,0,0,1,3.69,7.91l.06,0c-.24-3.26-.3-6.22-.3-10V298h2.5v24.37H174L167.41,310a81.39,81.39,0,0,1-3.84-8.14l-.1,0c.16,3.07.22,6,.22,10.05v10.42Z"/><path class="cls-4" d="M187,298v24.37h-2.65V298Z"/><path class="cls-4" d="M199.19,322.36,192.48,298h2.87l3.2,12c.89,3.29,1.65,6.26,2.2,9.11h.06c.58-2.82,1.44-5.89,2.35-9.07l3.48-12h2.84l-7.35,24.37Z"/><path class="cls-4" d="M225.42,310.93h-8v8.79h8.92v2.64H214.77V298h11.11v2.64h-8.46v7.7h8Z"/><path class="cls-4" d="M232.84,298.31a23.74,23.74,0,0,1,5.1-.51c2.84,0,4.67.62,5.95,2a6.67,6.67,0,0,1,1.62,4.63,6.35,6.35,0,0,1-3.88,6.22v.11c1.59.65,2.53,2.39,3,4.92a43.72,43.72,0,0,0,1.59,6.69h-2.75a37.2,37.2,0,0,1-1.37-5.83c-.61-3.36-1.71-4.62-4.12-4.73h-2.51v10.56h-2.65Zm2.65,11.1h2.72a4.34,4.34,0,0,0,4.64-4.63c0-3.14-1.92-4.52-4.73-4.55a9.15,9.15,0,0,0-2.63.29Z"/><path class="cls-4" d="M252,318.52a8.34,8.34,0,0,0,4.76,1.59A4,4,0,0,0,261,316c0-2.28-1.1-3.58-3.88-4.85-3.36-1.41-5.43-3.47-5.43-6.91a6.35,6.35,0,0,1,6.65-6.61,8.21,8.21,0,0,1,4.55,1.19l-.73,2.57a7.19,7.19,0,0,0-3.91-1.16,3.57,3.57,0,0,0-3.88,3.65c0,2.28,1.25,3.4,4.09,4.7,3.48,1.59,5.26,3.58,5.26,7.16,0,3.76-2.36,7-7.21,7a9.36,9.36,0,0,1-5.25-1.56Z"/><path class="cls-4" d="M273.08,298v24.37h-2.66V298Z"/><path class="cls-4" d="M284.68,300.66h-6.26V298h15.23v2.67h-6.28v21.7h-2.69Z"/><path class="cls-4" d="M304.43,322.36V312l-6.5-14h3l2.9,6.72c.8,1.85,1.41,3.33,2,5H306c.58-1.59,1.28-3.18,2.07-5l3-6.72h3l-6.9,14v10.38Z"/></g></g></svg>